<svg width="100" height="75" viewBox="0 0 100 75" fill="none" xmlns="http://www.w3.org/2000/svg">
<path d="M46.3041 10.3776C48.246 7.60511 48.694 6 50.1877 6C55.4157 6.58368 57.3574 8.33471 61.5398 12.1286C70.8648 13.8722 77.0285 19.0139 81.1317 24.8311C82.4069 26.6389 83.483 28.5119 84.3933 30.3685C86.5594 34.7867 87.931 38.6106 88.5756 42.3339C90.2186 64.3676 66.2849 70.6533 53.4738 72.5391C42.5698 74.1442 9.99202 72.2473 6.27315 55.6125C5.00091 49.9216 8.36423 39.9992 12.3973 34.7461C7.91616 24.094 12.3973 13.8796 16.5796 8.18879C21.6582 9.21022 27.0896 11.9365 30.471 15.7766C34.0558 13.5878 40.18 11.399 46.3041 10.3776Z" fill="#FFD1F8"/>
<path d="M81.1317 24.8311C82.4069 26.6389 83.483 28.5119 84.3933 30.3685C89.358 28.1797 97.0975 23.5021 96.5 20C95.9025 16.4979 93.0393 14.3174 90.5 15.7766C89.1557 16.6521 83.9452 22.9266 81.0413 24.6776L81.1317 24.8311Z" fill="#FFD1F8"/>
<path d="M22.5544 22.4889C24.4962 20.0082 28.6785 17.0899 30.471 15.7766M46.3041 10.3776L42.5698 16.6521M46.3041 10.3776C48.246 7.60511 48.694 6 50.1877 6C55.4157 6.58368 57.3574 8.33471 61.5398 12.1286M46.3041 10.3776C40.18 11.399 34.0558 13.5878 30.471 15.7766M67.0664 27.596C67.0664 21.6133 65.5727 17.0899 61.5398 12.1286M61.5398 12.1286C70.8648 13.8722 77.0285 19.0139 81.1317 24.8311M12.3973 34.7461C8.36423 39.9992 5.00091 49.9216 6.27315 55.6125C9.99202 72.2473 42.5698 74.1442 53.4738 72.5391C66.2849 70.6533 90.2186 64.3676 88.5756 42.3339C87.931 38.6106 86.5594 34.7867 84.3933 30.3685M12.3973 34.7461L17.9239 28.3256L15.0859 22.4889C14.1897 24.6776 13.2935 25.9909 14.1897 29.2011M12.3973 34.7461C7.91616 24.094 12.3973 13.8796 16.5796 8.18879C21.6582 9.21022 27.0896 11.9365 30.471 15.7766M84.3933 30.3685C89.358 28.1797 97.0975 23.5021 96.5 20C95.9025 16.4979 93.0393 14.3174 90.5 15.7766C89.1557 16.6521 83.9452 22.9266 81.0413 24.6776M84.3933 30.3685C83.483 28.5119 82.4069 26.6389 81.1317 24.8311M84.3933 30.3685C83.2479 28.4239 81.5407 25.5254 81.1317 24.8311M81.0413 24.6776L81.1317 24.8311M81.0413 24.6776C81.0413 24.6776 81.0733 24.7319 81.1317 24.8311M50.6358 26.7205C52.1295 27.0124 53.2759 28.766 54.9675 30.0767C54.6688 24.9695 54.2207 22.3429 51.8308 17.9654" stroke="#4B4A4A" stroke-width="3" stroke-linecap="round"/>
<circle cx="40.5" cy="50.5" r="3.5" fill="#4B4A4A"/>
<circle cx="15.5" cy="48.5" r="3.5" fill="#4B4A4A"/>
<path d="M24 50C24 50.9523 24.5784 51.679 25.6155 51.679C26.1966 51.679 26.4401 51.4982 26.8176 51.0986C26.9266 50.9832 27.1141 50.7135 27.1331 50.5597C27.1445 50.4673 27.231 50.0681 27.231 50.3731C27.3469 50.9675 29.1735 53.6048 31 50.5597" stroke="#4B4A4A" stroke-width="3" stroke-linecap="round"/>
<path d="M46 56C46.3624 56.4739 46.9042 57.0647 47.1739 57.6899C47.3583 58.1174 47.7083 58.7659 48 59" stroke="#4B4A4A" stroke-width="3" stroke-linecap="round"/>
<path d="M48 53C48.4492 53 48.8842 53 49.3306 53C49.6822 53 50.0383 53 50.388 53C50.5642 53 50.8549 53 51 53" stroke="#4B4A4A" stroke-width="3" stroke-linecap="round"/>
<path d="M4 49H8" stroke="#4B4A4A" stroke-width="3" stroke-linecap="round"/>
<path d="M9 53C8.17843 53.1643 7.41574 53.3169 6.66908 53.4662C6.08116 53.5838 5.55272 53.6895 5.00242 53.7995C4.72003 53.856 4.14651 53.9707 4 54" stroke="#4B4A4A" stroke-width="3" stroke-linecap="round"/>
</svg>
