<svg width="211" height="250" viewBox="0 0 211 250" fill="none" xmlns="http://www.w3.org/2000/svg">
<path d="M124.033 42.853L29.0201 9.50759L27.0489 16.3962L30.2028 17.5931L29.0201 21.5828L32.5683 22.7797L30.9913 26.7694L55.8287 36.3446L58.9827 30.759L61.7424 31.9559L64.1078 27.1683L73.9639 30.759L71.9927 35.1477L75.9352 37.1425L73.9639 40.7333L78.3006 41.9302L77.1179 45.9198L100.378 54.6972L102.35 51.5054L107.08 53.1013L109.052 49.9095L113.388 51.1064L115.754 47.1168L120.879 49.1116L124.033 42.853Z" fill="black"/>
<path d="M201.699 247C231.267 81.4281 149.659 35.0492 104.321 15.1992C48.7323 -3.95119 9.70193 2.43233 5.7597 14.0024C2.60554 36.7436 19.5587 32.3549 27.0489 44.324M133.101 71.8528C100.378 79.8322 58.5884 59.5931 27.0489 44.324M27.0489 44.324C14.4331 71.8528 35.6781 105.754 30.5975 141.025M19.5587 247L30.5975 141.025M30.5975 141.025C30.5975 141.025 8.51983 152.843 3 163.217C7.59892 171.527 18.9185 178.114 33.4538 183.73M150.447 221.067C146.744 218.297 141.624 215.764 135.5 213.379M178.833 166.408L133.101 224.259C107.749 220.744 74.4435 176.056 33.4538 183.73M16.4043 189.947C22.2275 186.763 27.9109 184.768 33.4538 183.73M149.659 57.4899L142.957 54.6972L144.139 49.9095L29.0201 9.50759M27.0489 8.81577L29.0201 9.50759M29.0201 9.50759L27.0489 16.3962L30.2028 17.5931L29.0201 21.5828L32.5683 22.7797L30.9913 26.7694L55.8287 36.3446L58.9827 30.759L61.7424 31.9559L64.1078 27.1683L73.9639 30.759L71.9927 35.1477L75.9352 37.1425L73.9639 40.7333L78.3006 41.9302L77.1179 45.9198L100.378 54.6972L102.35 51.5054L107.08 53.1013L109.052 49.9095L113.388 51.1064L115.754 47.1168L120.879 49.1116L124.033 42.853L29.0201 9.50759ZM33.4538 183.73L19.5587 196M33.4538 183.73L29.0201 199M33.4538 183.73C64.1296 195.582 109.128 203.109 135.5 213.379M135.5 213.379H155.5M135.5 213.379L144.139 229.5" stroke="black" stroke-width="5" stroke-linecap="round"/>
<rect width="3.88701" height="3.18033" transform="matrix(-0.919733 -0.392544 -0.386034 0.922485 114.969 45.6543)" fill="#E4E4E4"/>
<rect width="3.88701" height="3.18033" transform="matrix(-0.919733 -0.392544 -0.386034 0.922485 110.239 47.2461)" fill="#E4E4E4"/>
<rect width="3.88701" height="3.18033" transform="matrix(-0.919733 -0.392544 -0.386034 0.922485 107.874 42.4688)" fill="#E4E4E4"/>
<rect width="3.88701" height="3.18033" transform="matrix(-0.919733 -0.392544 -0.386034 0.922485 93.6813 46.4512)" fill="#E4E4E4"/>
<rect width="3.88701" height="3.18033" transform="matrix(-0.919733 -0.392544 -0.386034 0.922485 103.143 44.0615)" fill="#E4E4E4"/>
<rect width="3.88701" height="3.18033" transform="matrix(-0.919733 -0.392544 -0.386034 0.922485 100.777 49.6348)" fill="#E4E4E4"/>
<rect width="3.88701" height="3.18033" transform="matrix(-0.919733 -0.392544 -0.386034 0.922485 100.777 49.6348)" fill="#E4E4E4"/>
<rect width="3.88701" height="3.18033" transform="matrix(-0.919733 -0.392544 -0.386034 0.922485 98.412 45.6543)" fill="#E4E4E4"/>
<rect width="3.88701" height="3.18033" transform="matrix(-0.919733 -0.392544 -0.386034 0.922485 105.508 48.042)" fill="#E4E4E4"/>
<rect width="3.88701" height="3.18033" transform="matrix(-0.919733 -0.392544 -0.386034 0.922485 62.9315 28.9326)" fill="#E4E4E4"/>
<rect width="3.88701" height="3.18033" transform="matrix(-0.919733 -0.392544 -0.386034 0.922485 58.2009 30.5254)" fill="#E4E4E4"/>
<rect width="3.88701" height="3.18033" transform="matrix(-0.919733 -0.392544 -0.386034 0.922485 55.8354 25.7471)" fill="#E4E4E4"/>
<rect width="3.88701" height="3.18033" transform="matrix(-0.919733 -0.392544 -0.386034 0.922485 51.1049 27.3398)" fill="#E4E4E4"/>
<rect width="3.88701" height="3.18033" transform="matrix(-0.919733 -0.392544 -0.386034 0.922485 46.374 28.9326)" fill="#E4E4E4"/>
<rect width="3.88701" height="3.18033" transform="matrix(-0.919733 -0.392544 -0.386034 0.922485 53.4702 31.3213)" fill="#E4E4E4"/>
</svg>
