<svg width="100" height="76" viewBox="0 0 100 76" fill="none" xmlns="http://www.w3.org/2000/svg">
<path d="M21.8388 19.9661C21.8388 23.9043 -5.31687 55.2384 30.6015 68.1414L33.1175 72.3306C34.1587 71.1572 35.5469 71.3247 36.3276 72.3306C37.3688 71.0734 38.5835 71.241 39.5377 72.3306L41.62 68.1414C46.3918 69.1464 48.8211 68.9788 53.8531 68.1414V72.3306C55.8347 71.3636 56.6655 72.4721 57.4463 72.9752C58.9212 71.8018 60.6204 71.4923 61.0542 72.3306L65.6524 68.1414C87.1687 67.1356 100.877 50.4628 78.6663 18.877C82.0499 15.0225 78.6663 -1.90162 61.9217 6.14194C51.3371 3.79562 44.2228 3.20913 33.9851 7.56625C21.8388 0.695643 16.7201 15.1901 21.8388 19.9661Z" fill="#AFE07D"/>
<path d="M42.6612 15.9442C44.9169 18.0387 47.78 15.9442 49.8622 15.9442C52.2339 15.9442 53.0723 18.2063 55.9354 15.9442M21.8388 19.9661C21.8388 23.9043 -5.31687 55.2384 30.6015 68.1414L33.1175 72.3306C34.1587 71.1572 35.5469 71.3247 36.3276 72.3306C37.3688 71.0734 38.5835 71.241 39.5377 72.3306L41.62 68.1414C46.3918 69.1464 48.8211 68.9788 53.8531 68.1414V72.3306C55.8347 71.3636 56.6655 72.4721 57.4463 72.9752C58.9212 71.8018 60.6204 71.4923 61.0542 72.3306L65.6524 68.1414C87.1687 67.1356 100.877 50.4628 78.6663 18.877C82.0499 15.0225 78.6663 -1.90162 61.9217 6.14194C51.3371 3.79562 44.2228 3.20913 33.9851 7.56625C21.8388 0.695643 16.7201 15.1901 21.8388 19.9661Z" stroke="#4B4A4A" stroke-width="3" stroke-linecap="round"/>
<ellipse cx="29.7667" cy="14.1224" rx="3.9" ry="3.37435" fill="#4B4A4A"/>
<ellipse cx="69.6331" cy="12.4359" rx="3.61111" ry="3.37435" fill="#4B4A4A"/>
<ellipse cx="46.115" cy="47.8155" rx="19.9333" ry="19.9649" fill="#FFF7AA"/>
</svg>
