<svg width="343" height="287" viewBox="0 0 343 287" fill="none" xmlns="http://www.w3.org/2000/svg">
<path d="M119.5 208.86C111 243.36 102.5 277.86 89 281.36C69.5 265.86 61.5 240.36 49 235.816M38.5 223.86L49 235.816M49 235.816C40.6037 240.129 32.5 249.36 27.5 246.86C21.5 239.36 17 230.36 15.5 227.36M49 235.816C37.8701 241.496 32 250.36 20.5 250.36C17 249.36 9.5 238.36 4 231.36M83.0005 268.359C43.5002 153.359 50.0001 94.3607 122.001 37.8601C176.5 0.360327 223.001 -0.63994 223.001 17.3594C223.001 49.8601 169.5 65.8607 122.001 70.3601C113 73.8607 83.0005 137.36 104.501 183.859C150.5 231.36 209.485 161.859 224.5 165.36C239.515 168.861 235 190.36 235 190.36M235 190.36C229.485 215.861 256 246.36 268.5 268.359M235 190.36C252 212.86 274.5 231.36 285 234.859C294 199.36 291.5 168.36 301 141.859M301 141.859C315.5 137.86 325 171.86 341.001 149.859M301 141.859C310 141.859 320.5 160.86 321.5 158.86C329.5 154.36 332.5 151.86 335.5 146.36M301 141.859C310 141.859 320.5 160.86 321.5 158.86C329.5 154.36 332.5 151.86 335.5 146.36" stroke="#333333" stroke-width="4"/>
<path d="M119.5 211.86C111 246.36 102.5 280.86 89 284.36C69.5 268.86 61.5 243.36 49 238.816M38.5 226.86L49 238.816M49 238.816C40.6037 243.129 32.5 252.36 27.5 249.86C21.5 242.36 17 233.36 15.5 230.36M49 238.816C37.8701 244.496 32 253.36 20.5 253.36C17 252.36 9.5 241.36 4 234.36M83.0005 271.359C43.5002 156.359 50.0001 97.3607 122.001 40.8601C176.5 3.36033 223.001 2.36006 223.001 20.3594C223.001 52.8601 169.5 68.8607 122.001 73.3601C113 76.8607 83.0005 140.36 104.501 186.859C150.5 234.36 209.485 164.859 224.5 168.36C239.515 171.861 235 193.36 235 193.36M235 193.36C229.485 218.861 256 249.36 268.5 271.359M235 193.36C252 215.86 274.5 234.36 285 237.859C294 202.36 291.5 171.36 301 144.859M301 144.859C315.5 140.86 325 174.86 341.001 152.859M301 144.859C310 144.859 320.5 163.86 321.5 161.86C329.5 157.36 332.5 154.86 335.5 149.36M301 144.859C310 144.859 320.5 163.86 321.5 161.86C329.5 157.36 332.5 154.86 335.5 149.36" stroke="#333333" stroke-opacity="0.2" stroke-width="4"/>
<path d="M117.5 204.86C109 239.36 100.5 273.86 87 277.36C67.5 261.86 59.5 236.36 47 231.816M36.5 219.86L47 231.816M47 231.816C38.6037 236.129 30.5 245.36 25.5 242.86C19.5 235.36 15 226.36 13.5 223.36M47 231.816C35.8701 237.496 30 246.36 18.5 246.36C15 245.36 7.5 234.36 2 227.36M81.0005 264.359C41.5002 149.359 48.0001 90.3607 120.001 33.8601C174.5 -3.63967 221.001 -4.63994 221.001 13.3594C221.001 45.8601 167.5 61.8607 120.001 66.3601C111 69.8607 81.0005 133.36 102.501 179.859C148.5 227.36 207.485 157.859 222.5 161.36C237.515 164.861 233 186.36 233 186.36M233 186.36C227.485 211.861 254 242.36 266.5 264.359M233 186.36C250 208.86 272.5 227.36 283 230.859C292 195.36 289.5 164.36 299 137.859M299 137.859C313.5 133.86 323 167.86 339.001 145.859M299 137.859C308 137.859 318.5 156.86 319.5 154.86C327.5 150.36 330.5 147.86 333.5 142.36M299 137.859C308 137.859 318.5 156.86 319.5 154.86C327.5 150.36 330.5 147.86 333.5 142.36" stroke="#333333" stroke-opacity="0.2" stroke-width="4"/>
<ellipse cx="126" cy="43.5" rx="8" ry="5.5" fill="white" fill-opacity="0.4"/>
<ellipse cx="126" cy="44.5" rx="16" ry="9.5" fill="white" fill-opacity="0.2"/>
<ellipse cx="126.5" cy="43" rx="2.5" ry="2" fill="white"/>
<ellipse cx="208.5" cy="17.5" rx="3.5" ry="2.5" fill="white"/>
<ellipse cx="209" cy="18.5" rx="16" ry="9.5" fill="white" fill-opacity="0.2"/>
<ellipse cx="209" cy="18.5" rx="8" ry="5.5" fill="white" fill-opacity="0.4"/>
</svg>
