<svg width="275" height="266" viewBox="0 0 275 266" fill="none" xmlns="http://www.w3.org/2000/svg">
<path d="M274.495 263.252C274.583 264.63 273.537 265.818 272.159 265.906C270.781 265.994 269.593 264.948 269.505 263.57L274.495 263.252ZM87.3813 3L87.1289 0.512769L87.3276 0.492607L87.527 0.504253L87.3813 3ZM86.7228 47.9852C88.0547 47.6216 89.4293 48.4065 89.793 49.7385C90.1566 51.0704 89.3717 52.445 88.0397 52.8087L86.7228 47.9852ZM63.3098 258.067C63.5531 259.426 62.6486 260.725 61.2895 260.969C59.9304 261.212 58.6314 260.307 58.3881 258.948L63.3098 258.067ZM52.0052 99.9731L54.2461 98.8648L54.3953 99.1666L54.4594 99.4971L52.0052 99.9731ZM30.4478 192.043L32.8779 191.456L30.4478 192.043ZM127.179 200.215L129.589 200.882C129.269 202.039 128.171 202.805 126.975 202.707L127.179 200.215ZM129.745 181.57C130.113 180.239 131.49 179.459 132.821 179.827C134.152 180.196 134.932 181.573 134.564 182.904L129.745 181.57ZM140.183 93.0723C140.384 91.7063 141.654 90.7615 143.02 90.9621C144.386 91.1627 145.33 92.4328 145.13 93.7988L140.183 93.0723ZM116.677 188.774L115.349 190.892L114.411 190.304L114.216 189.215L116.677 188.774ZM106.728 72.7335L104.749 71.2058C105.159 70.6739 105.767 70.3297 106.434 70.2508L106.728 72.7335ZM89.3602 99.3216C88.5164 100.415 86.9465 100.617 85.8536 99.7728C84.7606 98.9291 84.5586 97.3592 85.4023 96.2662L89.3602 99.3216ZM269.505 263.57C257.952 82.4702 160.234 9.7593 87.2355 5.49575L87.527 0.504253C163.772 4.95745 262.832 80.43 274.495 263.252L269.505 263.57ZM87.6336 5.48723C50.3694 9.26803 29.3059 19.6925 17.9056 30.9936C6.5484 42.252 4.56772 54.5819 5.83398 62.8197L0.892029 63.5794C-0.605194 53.839 1.83627 39.8827 14.3856 27.4426C26.8917 15.0453 49.2192 4.35905 87.1289 0.512769L87.6336 5.48723ZM5.83398 62.8197C6.09967 64.548 6.79242 65.7817 7.75925 66.7112C8.75754 67.671 10.1672 68.4176 12.0013 68.9294C15.723 69.9679 20.6765 69.9001 25.8403 69.2326C30.9473 68.5724 36.004 67.3618 39.8055 66.3067C41.7007 65.7807 43.2714 65.2968 44.3648 64.9457C44.9113 64.7702 45.3379 64.6281 45.6255 64.5306C45.7693 64.4819 45.8783 64.4444 45.95 64.4195C45.9859 64.4071 46.0125 64.3978 46.0295 64.3919C46.038 64.3889 46.0441 64.3867 46.0477 64.3855C46.0495 64.3848 46.0507 64.3844 46.0513 64.3842C46.0516 64.3841 46.0516 64.3841 46.0518 64.384C46.0516 64.3841 46.0513 64.3842 46.886 66.7407C47.7207 69.0973 47.72 69.0975 47.7193 69.0978C47.7188 69.098 47.7178 69.0983 47.7169 69.0986C47.715 69.0993 47.7125 69.1002 47.7094 69.1013C47.7032 69.1035 47.6945 69.1065 47.6834 69.1104C47.6611 69.1182 47.6292 69.1293 47.5879 69.1437C47.5053 69.1723 47.385 69.2137 47.2296 69.2663C46.9188 69.3716 46.467 69.5221 45.8936 69.7062C44.7472 70.0744 43.112 70.578 41.1427 71.1245C37.2155 72.2146 31.9096 73.4896 26.4813 74.1913C21.1098 74.8857 15.3553 75.0563 10.6574 73.7454C8.28168 73.0825 6.05359 72.0074 4.29391 70.3156C2.50275 68.5935 1.31726 66.3456 0.892029 63.5794L5.83398 62.8197ZM45.9759 64.4123C54.2599 61.1746 60.2823 58.2289 66.3878 55.4741C72.4874 52.7219 78.5612 50.2137 86.7228 47.9852L88.0397 52.8087C80.2275 54.9417 74.4171 57.3366 68.4442 60.0316C62.4774 62.7239 56.239 65.7694 47.796 69.0692L45.9759 64.4123ZM49.386 66.7407C49.386 79.3645 49.4268 89.1202 54.2461 98.8648L49.7642 101.081C44.3451 90.1239 44.386 79.1774 44.386 66.7407H49.386ZM54.4594 99.4971C60.1093 128.63 60.6576 159.216 60.6395 187.005C60.6214 214.946 60.0441 239.827 63.3098 258.067L58.3881 258.948C55.021 240.142 55.6216 214.63 55.6395 187.002C55.6576 159.223 55.1004 129.064 49.5509 100.449L54.4594 99.4971ZM54.4805 100.323C52.0016 117.837 46.3153 139.936 41.4152 158.075C38.9545 167.184 36.6994 175.267 35.1136 181.374C34.321 184.426 33.7091 186.933 33.3279 188.794C33.1366 189.727 33.0125 190.454 32.95 190.984C32.8741 191.628 32.9308 191.675 32.8779 191.456L28.0177 192.63C27.8369 191.881 27.9116 191.016 27.9844 190.399C28.0707 189.667 28.226 188.784 28.4296 187.79C28.8381 185.797 29.4771 183.186 30.2741 180.117C31.8672 173.982 34.1451 165.815 36.5882 156.771C41.4957 138.605 47.1002 116.788 49.5298 99.6227L54.4805 100.323ZM32.8779 191.456C32.9658 191.82 33.365 192.512 35.0032 193.308C36.6016 194.085 38.9523 194.743 42.0427 195.262C48.2001 196.297 56.6356 196.682 66.2818 196.802C85.3886 197.041 109.142 196.225 127.384 197.723L126.975 202.707C108.952 201.226 85.7213 202.045 66.2195 201.802C56.5614 201.682 47.7864 201.298 41.214 200.193C37.9395 199.643 35.0454 198.888 32.8175 197.805C30.6295 196.742 28.6208 195.127 28.0177 192.63L32.8779 191.456ZM124.77 199.548L129.745 181.57L134.564 182.904L129.589 200.882L124.77 199.548ZM145.13 93.7988C142.077 114.584 137.085 139.462 132.086 158.691C129.591 168.289 127.071 176.571 124.762 182.25C123.622 185.056 122.462 187.408 121.289 188.971C120.717 189.734 119.979 190.533 119.043 191.012C117.953 191.57 116.591 191.672 115.349 190.892L118.005 186.656C117.523 186.354 116.981 186.451 116.765 186.562C116.702 186.594 116.89 186.503 117.29 185.97C118.06 184.944 119.025 183.087 120.13 180.368C122.313 174.998 124.768 166.97 127.247 157.433C132.198 138.39 137.155 113.691 140.183 93.0723L145.13 93.7988ZM114.216 189.215C110.018 165.766 111 136.042 111.275 112.746C111.414 100.996 111.373 90.9632 110.467 83.9852C110.009 80.4622 109.362 77.9996 108.577 76.528C108.196 75.8137 107.861 75.4857 107.647 75.3441C107.485 75.2369 107.319 75.181 107.021 75.2162L106.434 70.2508C107.864 70.0816 109.222 70.3917 110.404 71.173C111.534 71.9199 112.363 73.0029 112.988 74.174C114.215 76.4734 114.95 79.6801 115.425 83.3415C116.385 90.7324 116.413 101.129 116.275 112.805C115.997 136.362 115.045 165.475 119.138 188.334L114.216 189.215ZM108.706 74.2612L89.3602 99.3216L85.4023 96.2662L104.749 71.2058L108.706 74.2612Z" fill="#333333"/>
<ellipse rx="3.86926" ry="3.26876" transform="matrix(-1 0 0 1 58.0853 49.3078)" fill="#333333"/>
<ellipse rx="3.31651" ry="3.81355" transform="matrix(-1 0 0 1 12.2069 56.3897)" fill="#333333"/>
<path d="M109.491 70.791C98.2665 70.791 94.567 77.3285 90.6978 81.1421C87.934 83.866 79.09 97.2492 86.8285 108.145C94.5 109.5 90.145 90.9483 97.8836 84.9556L109.491 70.791Z" fill="#333333"/>
<path d="M123.07 159.599C134.698 164.536 135.98 171.998 138.5 177.104C140.3 180.751 140.767 195.679 128.5 202C124.797 192.933 135.178 190.253 129.5 181.5C129.5 181.5 111.442 154.661 123.07 159.599Z" fill="#333333"/>
</svg>
