<svg width="136" height="128" viewBox="0 0 136 128" fill="none" xmlns="http://www.w3.org/2000/svg">
<path d="M80.1244 16L131.22 104.5C136.608 113.833 129.873 125.5 119.096 125.5H16.9045C6.12729 125.5 -0.608458 113.833 4.78015 104.5L55.8756 16C61.2643 6.66666 74.7358 6.66666 80.1244 16Z" fill="#BFD8B5" stroke="#9BBB8E" stroke-width="4"/>
<path d="M68 36.5C63.3056 36.5 59.5 32.6944 59.5 28C59.5 23.3056 63.3056 19.5 68 19.5C72.6944 19.5 76.5 23.3056 76.5 28C76.5 32.6944 72.6944 36.5 68 36.5Z" fill="#F1C8CC" stroke="#D8ABAF" stroke-width="3"/>
<line x1="21" y1="116" x2="84" y2="116" stroke="white" stroke-width="4" stroke-linecap="round"/>
<line x1="29.792" y1="79.7153" x2="14.7153" y2="107.208" stroke="white" stroke-width="4" stroke-linecap="round"/>
</svg>
