<svg width="288" height="250" viewBox="0 0 288 250" fill="none" xmlns="http://www.w3.org/2000/svg">
<path d="M3 249.501C11.0438 189.946 -2.5 139.501 17.5 88.0012M116.5 47.5011C147 36.5012 189.5 48.3145 213 47.5011M213 47.5011C226.083 47.0482 243.5 47.0014 245 40.0012C240 22.0012 234.5 13.5014 213 6.00122C165 -4.99865 76.5 15.0012 39 53.5011C27.8753 64.9224 20 81.0012 17.5 88.0012M213 47.5011C213.689 61.7553 211.5 75.0012 211.5 86.5012M228 243.001C234.5 212.501 233.5 196.501 228 165.001M211.5 86.5012C243.972 88.0013 286.5 88.0012 285 97.0011C288.5 110.001 257.236 147.001 228 165.001M211.5 86.5012C208.5 110.501 225.565 133.759 228 165.001M17.5 88.0012C50.5 156.501 73.5 163.001 108.5 166.501M108.5 166.501C98.5 181.001 115 187.001 119.5 187.501M108.5 166.501L122.5 159.501M119.5 187.501V193.501C122.5 198 127.5 200.2 133.5 201C141 202 144.5 201 149 196.501L151.5 158.501M119.5 187.501L122.5 159.501M151.5 158.501C152 149.001 134 141.001 124.5 154.501M151.5 158.501C147 163.501 143.5 164.217 136 163.298C129.5 162.501 124.5 158.501 124.5 154.501M124.5 154.501L122.5 159.501" stroke="#333333" stroke-width="5"/>
<ellipse cx="144" cy="29.001" rx="3.5" ry="3" fill="#333333"/>
<circle cx="226.5" cy="32.001" r="3" fill="#333333"/>
<ellipse cx="102.5" cy="171.001" rx="13" ry="14" fill="#333333"/>
<ellipse cx="231.335" cy="167.878" rx="16.2098" ry="13.5985" transform="rotate(29.9653 231.335 167.878)" fill="#333333"/>
</svg>
