<svg width="311" height="202" viewBox="0 0 311 202" fill="none" xmlns="http://www.w3.org/2000/svg">
<path d="M62.2028 27.8808C62.2028 30.7129 60.0728 33.0087 57.4454 33.0087C54.818 33.0087 52.688 30.7129 52.688 27.8808C52.688 25.0488 54.818 22.7529 57.4454 22.7529C60.0728 22.7529 62.2028 25.0488 62.2028 27.8808Z" fill="#333333"/>
<ellipse cx="167.393" cy="30.1592" rx="4.75737" ry="5.12791" fill="#333333"/>
<path d="M308 195.962C298.485 146.963 256.726 -19.9795 79.6464 5.66002C51.6308 9.71642 25.7296 26.1717 30.487 56.9393C37.8873 62.067 63.7886 56.9393 63.7886 56.9393M194.88 62.067C165.808 53.5205 114.005 54.0903 63.7886 56.9393M63.7886 56.9393C99.2045 78.5903 85.9896 93.0233 95.5043 127.779M100.79 199C96.0329 171.27 103.942 153.245 95.5043 127.779M95.5043 127.779C91.2756 156.267 80.7036 169.183 67.4887 195.962C56.3882 205.648 38.4159 130.584 25.7296 140.126C22.8527 142.289 21.3589 143.772 19.1222 146.686M3 124.742C4.85787 138.537 0.885615 151.537 5.64298 153.245C10.4003 154.954 12.5147 153.245 12.5147 153.245M12.5147 153.245C8.28596 144.114 8.32657 135.873 5.64298 124.742M12.5147 153.245C12.5147 153.245 16.5418 149.247 19.1222 146.686M19.1222 146.686C14.6291 137.846 10.4003 124.742 10.4003 124.742" stroke="#333333" stroke-width="5" stroke-linecap="round"/>
</svg>
